<svg width="64" height="64" viewBox="0 0 64 64" xmlns="http://www.w3.org/2000/svg">
  <!-- Fondo circular -->
  <circle cx="32" cy="32" r="30" fill="#0d9488" />
  
  <!-- Letra B estilizada -->
  <path d="M24 15h12c3.3 0 6 2.7 6 6 0 2.4-1.4 4.4-3.4 5.4 2.6 0.8 4.4 3.2 4.4 6.1 0 3.9-3.1 7-7 7H24V15zm12 10c1.7 0 3-1.3 3-3s-1.3-3-3-3h-8v6h8zm1 3h-9v9h9c2.2 0 4-1.8 4-4s-1.8-5-4-5z" fill="white" />
  
  <!-- Elemento decorativo (peine) -->
  <path d="M38 44h-12c-1.1 0-2 0.9-2 2s0.9 2 2 2h12c1.1 0 2-0.9 2-2s-0.9-2-2-2z" fill="white" />
  
  <!-- Elemento decorativo (tijeras) representado como líneas -->
  <path d="M43 14l-5 5M43 19l-5-5" stroke="white" stroke-width="2" stroke-linecap="round" />
</svg>